<?xml version="1.0" encoding="UTF-8"?>
<svg id="Layer_1" xmlns="http://www.w3.org/2000/svg" version="1.1" xmlns:xlink="http://www.w3.org/1999/xlink" viewBox="0 0 32 32">
  <!-- Generator: Adobe Illustrator 29.8.4, SVG Export Plug-In . SVG Version: 2.1.1 Build 6)  -->
  <defs>
    <style>
      .st0 {
        fill: url(#linear-gradient);
      }
    </style>
    <linearGradient id="linear-gradient" x1="15.84" y1="2.21" x2="15.84" y2="30.18" gradientUnits="userSpaceOnUse">
      <stop offset="0" stop-color="#856840"/>
      <stop offset="1" stop-color="#ad9367"/>
    </linearGradient>
  </defs>
  <path class="st0" d="M24.36,31.5c-2.22-.1-4.3-.67-6.3-1.57C10.1,26.37,3.4,19.74.92,11.27.31,9.2.12,7.1.64,4.97,1.18,2.81,3.74,1.75,5.51.74c.79-.45,1.6-.24,2.11.52,1.61,2.39,3.21,4.79,4.8,7.18.58.87.44,1.66-.39,2.31-.82.65-1.65,1.28-2.48,1.93-.78.61-.93,1.33-.47,2.22,1.84,3.58,4.54,5.97,8.02,7.89.71.39,1.46.18,1.98-.47.67-.85,1.33-1.71,2-2.56.64-.82,1.44-.95,2.32-.37,2.39,1.58,4.78,3.18,7.17,4.77.79.53,1,1.34.52,2.16-1.81,3.12-3,4.63-6.73,5.18Z"/>
</svg>