<?xml version="1.0" encoding="UTF-8"?>
<svg id="Layer_1" xmlns="http://www.w3.org/2000/svg" version="1.1" xmlns:xlink="http://www.w3.org/1999/xlink" viewBox="0 0 32 32">
  <!-- Generator: Adobe Illustrator 29.8.4, SVG Export Plug-In . SVG Version: 2.1.1 Build 6)  -->
  <defs>
    <style>
      .st0 {
        fill: url(#linear-gradient);
      }
    </style>
    <linearGradient id="linear-gradient" x1="16" y1="31.23" x2="16" y2=".97" gradientTransform="translate(0 32) scale(1 -1)" gradientUnits="userSpaceOnUse">
      <stop offset="0" stop-color="#856840"/>
      <stop offset="1" stop-color="#ad9367"/>
    </linearGradient>
  </defs>
  <path class="st0" d="M16,.34C7.35.34.34,7.35.34,16s7.01,15.66,15.66,15.66,15.66-7.01,15.66-15.66S24.65.34,16,.34ZM21.56,21.57c-.29.29-.68.44-1.06.44s-.77-.15-1.06-.44l-4.5-4.5c-.28-.28-.44-.66-.44-1.06V7.02c0-.83.67-1.5,1.5-1.5s1.5.67,1.5,1.5v8.36l4.06,4.06c.59.59.59,1.54,0,2.12h0Z"/>
</svg>