<?xml version="1.0" encoding="UTF-8"?>
<svg version="1.1" xmlns="http://www.w3.org/2000/svg" width="91" height="92">
<path d="M0 0 C8.76554868 6.48916673 15.82553794 15.28624869 18.5625 26.01171875 C20.56886348 39.7158979 19.51639053 52.42542384 11.8125 64.25 C4.08043506 74.49909884 -5.48689759 81.02193387 -18 84 C-33.37316461 85.64362605 -45.60151378 82.43909715 -58 73 C-65.03539805 66.62628046 -71.43790771 57.18908925 -72.19287109 47.53320312 C-72.90494423 23.21051098 -72.90494423 23.21051098 -67 14 C-66.50371094 13.19949219 -66.00742188 12.39898438 -65.49609375 11.57421875 C-59.07105358 2.36241418 -49.60651306 -3.65356005 -39 -7 C-38.40316406 -7.19207031 -37.80632813 -7.38414062 -37.19140625 -7.58203125 C-24.01637536 -10.09491593 -11.07159217 -7.45240738 0 0 Z M-29 10 C-31.33224549 28.00153171 -31.33224549 28.00153171 -26.24609375 44.3359375 C-23.14645628 47.18190758 -19.7378885 49.09945524 -16 51 C-15.2471875 51.58007812 -14.494375 52.16015625 -13.71875 52.7578125 C-12.04323099 54.2703906 -12.04323099 54.2703906 -9.75 53.6875 C-9.1725 53.460625 -8.595 53.23375 -8 53 C-7.56054829 49.18039792 -7.56054829 49.18039792 -9.26928711 47.55200195 C-9.8494458 47.11847412 -10.42960449 46.68494629 -11.02734375 46.23828125 C-11.65447266 45.75939453 -12.28160156 45.28050781 -12.92773438 44.78710938 C-13.59095703 44.30048828 -14.25417969 43.81386719 -14.9375 43.3125 C-16.23836574 42.32953889 -17.53915115 41.34647145 -18.83984375 40.36328125 C-19.88269531 39.58339844 -20.92554688 38.80351563 -22 38 C-23.77490546 36.22509454 -23.23499973 33.62215098 -23.31640625 31.21484375 C-23.37924805 29.46010742 -23.37924805 29.46010742 -23.44335938 27.66992188 C-23.48267578 26.43822266 -23.52199219 25.20652344 -23.5625 23.9375 C-23.60568359 22.70193359 -23.64886719 21.46636719 -23.69335938 20.19335938 C-23.79984198 17.12902665 -23.90185424 14.06460927 -24 11 C-25.65 10.67 -27.3 10.34 -29 10 Z " fill="#000000" transform="translate(72,8)"/>
</svg>
